ISO-10303-21;
HEADER;
/* Generated by software containing ST-Developer
 * from STEP Tools, Inc. (www.steptools.com) 
 */

FILE_DESCRIPTION(
/* description */ (''),
/* implementation_level */ '2;1');

FILE_NAME(
/* name */ 'Fume Extractor_Case1.step',
/* time_stamp */ '2026-04-22T11:23:45+08:00',
/* author */ (''),
/* organization */ (''),
/* preprocessor_version */ 'ST-DEVELOPER v20.1',
/* originating_system */ 'Autodesk Translation Framework v15.8.0.0',
/* authorisation */ '');

FILE_SCHEMA (('AUTOMOTIVE_DESIGN { 1 0 10303 214 3 1 1 }'));
ENDSEC;

DATA;
#10=MECHANICAL_DESIGN_GEOMETRIC_PRESENTATION_REPRESENTATION('',(#13),#1255);
#11=SHAPE_REPRESENTATION_RELATIONSHIP('SRR','None',#1262,#12);
#12=ADVANCED_BREP_SHAPE_REPRESENTATION('',(#14),#1254);
#13=STYLED_ITEM('',(#1271),#14);
#14=MANIFOLD_SOLID_BREP('Body1',#715);
#15=FACE_BOUND('',#110,.T.);
#16=FACE_BOUND('',#113,.T.);
#17=FACE_BOUND('',#114,.T.);
#18=FACE_BOUND('',#115,.T.);
#19=FACE_BOUND('',#116,.T.);
#20=FACE_BOUND('',#117,.T.);
#21=TOROIDAL_SURFACE('',#745,7.,3.);
#22=TOROIDAL_SURFACE('',#752,7.,3.);
#23=TOROIDAL_SURFACE('',#758,7.,3.);
#24=TOROIDAL_SURFACE('',#764,7.,3.);
#25=PLANE('',#732);
#26=PLANE('',#736);
#27=PLANE('',#740);
#28=PLANE('',#744);
#29=PLANE('',#769);
#30=PLANE('',#772);
#31=PLANE('',#775);
#32=PLANE('',#782);
#33=PLANE('',#788);
#34=PLANE('',#790);
#35=PLANE('',#794);
#36=PLANE('',#801);
#37=PLANE('',#802);
#38=PLANE('',#806);
#39=PLANE('',#807);
#40=PLANE('',#808);
#41=PLANE('',#809);
#42=PLANE('',#810);
#43=PLANE('',#811);
#44=PLANE('',#812);
#45=PLANE('',#813);
#46=PLANE('',#814);
#47=FACE_OUTER_BOUND('',#89,.T.);
#48=FACE_OUTER_BOUND('',#90,.T.);
#49=FACE_OUTER_BOUND('',#91,.T.);
#50=FACE_OUTER_BOUND('',#92,.T.);
#51=FACE_OUTER_BOUND('',#93,.T.);
#52=FACE_OUTER_BOUND('',#94,.T.);
#53=FACE_OUTER_BOUND('',#95,.T.);
#54=FACE_OUTER_BOUND('',#96,.T.);
#55=FACE_OUTER_BOUND('',#97,.T.);
#56=FACE_OUTER_BOUND('',#98,.T.);
#57=FACE_OUTER_BOUND('',#99,.T.);
#58=FACE_OUTER_BOUND('',#100,.T.);
#59=FACE_OUTER_BOUND('',#101,.T.);
#60=FACE_OUTER_BOUND('',#102,.T.);
#61=FACE_OUTER_BOUND('',#103,.T.);
#62=FACE_OUTER_BOUND('',#104,.T.);
#63=FACE_OUTER_BOUND('',#105,.T.);
#64=FACE_OUTER_BOUND('',#106,.T.);
#65=FACE_OUTER_BOUND('',#107,.T.);
#66=FACE_OUTER_BOUND('',#108,.T.);
#67=FACE_OUTER_BOUND('',#109,.T.);
#68=FACE_OUTER_BOUND('',#111,.T.);
#69=FACE_OUTER_BOUND('',#112,.T.);
#70=FACE_OUTER_BOUND('',#118,.T.);
#71=FACE_OUTER_BOUND('',#119,.T.);
#72=FACE_OUTER_BOUND('',#120,.T.);
#73=FACE_OUTER_BOUND('',#121,.T.);
#74=FACE_OUTER_BOUND('',#122,.T.);
#75=FACE_OUTER_BOUND('',#123,.T.);
#76=FACE_OUTER_BOUND('',#124,.T.);
#77=FACE_OUTER_BOUND('',#125,.T.);
#78=FACE_OUTER_BOUND('',#126,.T.);
#79=FACE_OUTER_BOUND('',#127,.T.);
#80=FACE_OUTER_BOUND('',#128,.T.);
#81=FACE_OUTER_BOUND('',#129,.T.);
#82=FACE_OUTER_BOUND('',#130,.T.);
#83=FACE_OUTER_BOUND('',#131,.T.);
#84=FACE_OUTER_BOUND('',#132,.T.);
#85=FACE_OUTER_BOUND('',#133,.T.);
#86=FACE_OUTER_BOUND('',#134,.T.);
#87=FACE_OUTER_BOUND('',#135,.T.);
#88=FACE_OUTER_BOUND('',#136,.T.);
#89=EDGE_LOOP('',(#457,#458,#459,#460));
#90=EDGE_LOOP('',(#461));
#91=EDGE_LOOP('',(#462,#463,#464,#465));
#92=EDGE_LOOP('',(#466));
#93=EDGE_LOOP('',(#467,#468,#469,#470));
#94=EDGE_LOOP('',(#471));
#95=EDGE_LOOP('',(#472,#473,#474,#475));
#96=EDGE_LOOP('',(#476));
#97=EDGE_LOOP('',(#477,#478,#479,#480));
#98=EDGE_LOOP('',(#481,#482,#483,#484));
#99=EDGE_LOOP('',(#485,#486,#487,#488));
#100=EDGE_LOOP('',(#489,#490,#491,#492));
#101=EDGE_LOOP('',(#493,#494,#495,#496));
#102=EDGE_LOOP('',(#497,#498,#499,#500));
#103=EDGE_LOOP('',(#501,#502,#503,#504));
#104=EDGE_LOOP('',(#505,#506,#507,#508));
#105=EDGE_LOOP('',(#509,#510,#511,#512));
#106=EDGE_LOOP('',(#513,#514,#515,#516));
#107=EDGE_LOOP('',(#517,#518,#519,#520));
#108=EDGE_LOOP('',(#521,#522,#523,#524));
#109=EDGE_LOOP('',(#525,#526,#527,#528,#529,#530,#531,#532));
#110=EDGE_LOOP('',(#533,#534,#535,#536,#537,#538,#539,#540));
#111=EDGE_LOOP('',(#541,#542,#543,#544));
#112=EDGE_LOOP('',(#545,#546,#547,#548,#549,#550,#551,#552));
#113=EDGE_LOOP('',(#553,#554,#555,#556,#557,#558,#559,#560));
#114=EDGE_LOOP('',(#561));
#115=EDGE_LOOP('',(#562));
#116=EDGE_LOOP('',(#563));
#117=EDGE_LOOP('',(#564));
#118=EDGE_LOOP('',(#565,#566,#567,#568));
#119=EDGE_LOOP('',(#569,#570,#571,#572));
#120=EDGE_LOOP('',(#573,#574,#575,#576));
#121=EDGE_LOOP('',(#577,#578,#579,#580,#581,#582,#583,#584));
#122=EDGE_LOOP('',(#585,#586,#587,#588));
#123=EDGE_LOOP('',(#589,#590,#591,#592,#593,#594,#595,#596));
#124=EDGE_LOOP('',(#597,#598,#599,#600,#601,#602,#603,#604));
#125=EDGE_LOOP('',(#605,#606,#607,#608));
#126=EDGE_LOOP('',(#609,#610,#611,#612));
#127=EDGE_LOOP('',(#613,#614,#615,#616,#617,#618,#619,#620));
#128=EDGE_LOOP('',(#621,#622,#623,#624));
#129=EDGE_LOOP('',(#625,#626,#627,#628));
#130=EDGE_LOOP('',(#629,#630,#631,#632));
#131=EDGE_LOOP('',(#633,#634,#635,#636));
#132=EDGE_LOOP('',(#637,#638,#639,#640));
#133=EDGE_LOOP('',(#641,#642,#643,#644));
#134=EDGE_LOOP('',(#645,#646,#647,#648));
#135=EDGE_LOOP('',(#649,#650,#651,#652));
#136=EDGE_LOOP('',(#653,#654,#655,#656));
#137=LINE('',#1050,#193);
#138=LINE('',#1057,#194);
#139=LINE('',#1064,#195);
#140=LINE('',#1071,#196);
#141=LINE('',#1087,#197);
#142=LINE('',#1088,#198);
#143=LINE('',#1099,#199);
#144=LINE('',#1100,#200);
#145=LINE('',#1111,#201);
#146=LINE('',#1112,#202);
#147=LINE('',#1120,#203);
#148=LINE('',#1121,#204);
#149=LINE('',#1124,#205);
#150=LINE('',#1126,#206);
#151=LINE('',#1127,#207);
#152=LINE('',#1130,#208);
#153=LINE('',#1134,#209);
#154=LINE('',#1135,#210);
#155=LINE('',#1138,#211);
#156=LINE('',#1143,#212);
#157=LINE('',#1147,#213);
#158=LINE('',#1151,#214);
#159=LINE('',#1155,#215);
#160=LINE('',#1160,#216);
#161=LINE('',#1163,#217);
#162=LINE('',#1166,#218);
#163=LINE('',#1169,#219);
#164=LINE('',#1173,#220);
#165=LINE('',#1177,#221);
#166=LINE('',#1181,#222);
#167=LINE('',#1184,#223);
#168=LINE('',#1186,#224);
#169=LINE('',#1189,#225);
#170=LINE('',#1191,#226);
#171=LINE('',#1192,#227);
#172=LINE('',#1195,#228);
#173=LINE('',#1198,#229);
#174=LINE('',#1200,#230);
#175=LINE('',#1203,#231);
#176=LINE('',#1206,#232);
#177=LINE('',#1207,#233);
#178=LINE('',#1210,#234);
#179=LINE('',#1213,#235);
#180=LINE('',#1215,#236);
#181=LINE('',#1220,#237);
#182=LINE('',#1222,#238);
#183=LINE('',#1226,#239);
#184=LINE('',#1229,#240);
#185=LINE('',#1232,#241);
#186=LINE('',#1234,#242);
#187=LINE('',#1237,#243);
#188=LINE('',#1239,#244);
#189=LINE('',#1241,#245);
#190=LINE('',#1242,#246);
#191=LINE('',#1244,#247);
#192=LINE('',#1248,#248);
#193=VECTOR('',#821,5.);
#194=VECTOR('',#830,5.);
#195=VECTOR('',#839,5.);
#196=VECTOR('',#848,5.);
#197=VECTOR('',#867,10.);
#198=VECTOR('',#868,10.);
#199=VECTOR('',#881,10.);
#200=VECTOR('',#882,10.);
#201=VECTOR('',#895,10.);
#202=VECTOR('',#896,10.);
#203=VECTOR('',#907,10.);
#204=VECTOR('',#908,10.);
#205=VECTOR('',#911,10.);
#206=VECTOR('',#912,10.);
#207=VECTOR('',#913,10.);
#208=VECTOR('',#916,10.);
#209=VECTOR('',#921,10.);
#210=VECTOR('',#922,10.);
#211=VECTOR('',#925,10.);
#212=VECTOR('',#930,10.);
#213=VECTOR('',#933,10.);
#214=VECTOR('',#936,10.);
#215=VECTOR('',#939,10.);
#216=VECTOR('',#946,10.);
#217=VECTOR('',#949,10.);
#218=VECTOR('',#952,10.);
#219=VECTOR('',#953,10.);
#220=VECTOR('',#956,10.);
#221=VECTOR('',#959,10.);
#222=VECTOR('',#962,10.);
#223=VECTOR('',#967,10.);
#224=VECTOR('',#970,10.);
#225=VECTOR('',#973,10.);
#226=VECTOR('',#974,10.);
#227=VECTOR('',#975,10.);
#228=VECTOR('',#978,10.);
#229=VECTOR('',#981,10.);
#230=VECTOR('',#982,10.);
#231=VECTOR('',#985,10.);
#232=VECTOR('',#988,10.);
#233=VECTOR('',#989,10.);
#234=VECTOR('',#992,10.);
#235=VECTOR('',#995,10.);
#236=VECTOR('',#996,10.);
#237=VECTOR('',#1003,10.);
#238=VECTOR('',#1004,10.);
#239=VECTOR('',#1011,10.);
#240=VECTOR('',#1014,10.);
#241=VECTOR('',#1017,10.);
#242=VECTOR('',#1018,10.);
#243=VECTOR('',#1021,10.);
#244=VECTOR('',#1024,10.);
#245=VECTOR('',#1027,10.);
#246=VECTOR('',#1028,10.);
#247=VECTOR('',#1031,10.);
#248=VECTOR('',#1038,10.);
#249=CIRCLE('',#730,5.);
#250=CIRCLE('',#731,5.);
#251=CIRCLE('',#734,5.);
#252=CIRCLE('',#735,5.);
#253=CIRCLE('',#738,5.);
#254=CIRCLE('',#739,5.);
#255=CIRCLE('',#742,5.);
#256=CIRCLE('',#743,5.);
#257=CIRCLE('',#746,3.00000000000001);
#258=CIRCLE('',#747,7.);
#259=CIRCLE('',#748,3.);
#260=CIRCLE('',#749,10.);
#261=CIRCLE('',#751,3.);
#262=CIRCLE('',#753,3.);
#263=CIRCLE('',#754,10.);
#264=CIRCLE('',#755,7.);
#265=CIRCLE('',#757,3.);
#266=CIRCLE('',#759,3.);
#267=CIRCLE('',#760,10.);
#268=CIRCLE('',#761,7.);
#269=CIRCLE('',#763,3.);
#270=CIRCLE('',#765,3.);
#271=CIRCLE('',#766,10.);
#272=CIRCLE('',#767,7.);
#273=CIRCLE('',#771,10.);
#274=CIRCLE('',#774,10.);
#275=CIRCLE('',#776,12.5);
#276=CIRCLE('',#777,12.5);
#277=CIRCLE('',#778,12.5);
#278=CIRCLE('',#779,12.5);
#279=CIRCLE('',#781,10.);
#280=CIRCLE('',#783,10.);
#281=CIRCLE('',#784,12.5);
#282=CIRCLE('',#785,12.5);
#283=CIRCLE('',#786,12.5);
#284=CIRCLE('',#787,12.5);
#285=CIRCLE('',#792,12.5);
#286=CIRCLE('',#793,12.5);
#287=CIRCLE('',#796,12.5);
#288=CIRCLE('',#797,12.5);
#289=CIRCLE('',#799,12.5);
#290=CIRCLE('',#800,12.5);
#291=CIRCLE('',#804,12.5);
#292=CIRCLE('',#805,12.5);
#293=VERTEX_POINT('',#1047);
#294=VERTEX_POINT('',#1049);
#295=VERTEX_POINT('',#1054);
#296=VERTEX_POINT('',#1056);
#297=VERTEX_POINT('',#1061);
#298=VERTEX_POINT('',#1063);
#299=VERTEX_POINT('',#1068);
#300=VERTEX_POINT('',#1070);
#301=VERTEX_POINT('',#1075);
#302=VERTEX_POINT('',#1076);
#303=VERTEX_POINT('',#1078);
#304=VERTEX_POINT('',#1080);
#305=VERTEX_POINT('',#1084);
#306=VERTEX_POINT('',#1085);
#307=VERTEX_POINT('',#1090);
#308=VERTEX_POINT('',#1091);
#309=VERTEX_POINT('',#1096);
#310=VERTEX_POINT('',#1097);
#311=VERTEX_POINT('',#1102);
#312=VERTEX_POINT('',#1103);
#313=VERTEX_POINT('',#1108);
#314=VERTEX_POINT('',#1109);
#315=VERTEX_POINT('',#1114);
#316=VERTEX_POINT('',#1115);
#317=VERTEX_POINT('',#1123);
#318=VERTEX_POINT('',#1125);
#319=VERTEX_POINT('',#1129);
#320=VERTEX_POINT('',#1133);
#321=VERTEX_POINT('',#1137);
#322=VERTEX_POINT('',#1141);
#323=VERTEX_POINT('',#1142);
#324=VERTEX_POINT('',#1144);
#325=VERTEX_POINT('',#1146);
#326=VERTEX_POINT('',#1148);
#327=VERTEX_POINT('',#1150);
#328=VERTEX_POINT('',#1152);
#329=VERTEX_POINT('',#1154);
#330=VERTEX_POINT('',#1158);
#331=VERTEX_POINT('',#1162);
#332=VERTEX_POINT('',#1164);
#333=VERTEX_POINT('',#1167);
#334=VERTEX_POINT('',#1168);
#335=VERTEX_POINT('',#1170);
#336=VERTEX_POINT('',#1172);
#337=VERTEX_POINT('',#1174);
#338=VERTEX_POINT('',#1176);
#339=VERTEX_POINT('',#1178);
#340=VERTEX_POINT('',#1180);
#341=VERTEX_POINT('',#1188);
#342=VERTEX_POINT('',#1190);
#343=VERTEX_POINT('',#1194);
#344=VERTEX_POINT('',#1196);
#345=VERTEX_POINT('',#1199);
#346=VERTEX_POINT('',#1201);
#347=VERTEX_POINT('',#1205);
#348=VERTEX_POINT('',#1209);
#349=VERTEX_POINT('',#1211);
#350=VERTEX_POINT('',#1214);
#351=VERTEX_POINT('',#1218);
#352=VERTEX_POINT('',#1221);
#353=VERTEX_POINT('',#1228);
#354=VERTEX_POINT('',#1230);
#355=VERTEX_POINT('',#1233);
#356=VERTEX_POINT('',#1235);
#357=EDGE_CURVE('',#293,#293,#249,.T.);
#358=EDGE_CURVE('',#293,#294,#137,.T.);
#359=EDGE_CURVE('',#294,#294,#250,.T.);
#360=EDGE_CURVE('',#295,#295,#251,.T.);
#361=EDGE_CURVE('',#295,#296,#138,.T.);
#362=EDGE_CURVE('',#296,#296,#252,.T.);
#363=EDGE_CURVE('',#297,#297,#253,.T.);
#364=EDGE_CURVE('',#297,#298,#139,.T.);
#365=EDGE_CURVE('',#298,#298,#254,.T.);
#366=EDGE_CURVE('',#299,#299,#255,.T.);
#367=EDGE_CURVE('',#299,#300,#140,.T.);
#368=EDGE_CURVE('',#300,#300,#256,.T.);
#369=EDGE_CURVE('',#301,#302,#257,.T.);
#370=EDGE_CURVE('',#302,#303,#258,.T.);
#371=EDGE_CURVE('',#303,#304,#259,.T.);
#372=EDGE_CURVE('',#304,#301,#260,.T.);
#373=EDGE_CURVE('',#305,#306,#261,.T.);
#374=EDGE_CURVE('',#306,#304,#141,.T.);
#375=EDGE_CURVE('',#303,#305,#142,.T.);
#376=EDGE_CURVE('',#307,#308,#262,.T.);
#377=EDGE_CURVE('',#308,#306,#263,.T.);
#378=EDGE_CURVE('',#305,#307,#264,.T.);
#379=EDGE_CURVE('',#309,#310,#265,.T.);
#380=EDGE_CURVE('',#310,#308,#143,.T.);
#381=EDGE_CURVE('',#307,#309,#144,.T.);
#382=EDGE_CURVE('',#311,#312,#266,.T.);
#383=EDGE_CURVE('',#312,#310,#267,.T.);
#384=EDGE_CURVE('',#309,#311,#268,.T.);
#385=EDGE_CURVE('',#313,#314,#269,.T.);
#386=EDGE_CURVE('',#314,#312,#145,.T.);
#387=EDGE_CURVE('',#311,#313,#146,.T.);
#388=EDGE_CURVE('',#315,#316,#270,.T.);
#389=EDGE_CURVE('',#316,#314,#271,.T.);
#390=EDGE_CURVE('',#313,#315,#272,.T.);
#391=EDGE_CURVE('',#315,#302,#147,.T.);
#392=EDGE_CURVE('',#301,#316,#148,.T.);
#393=EDGE_CURVE('',#317,#314,#149,.T.);
#394=EDGE_CURVE('',#317,#318,#150,.T.);
#395=EDGE_CURVE('',#312,#318,#151,.T.);
#396=EDGE_CURVE('',#316,#319,#152,.T.);
#397=EDGE_CURVE('',#319,#317,#273,.T.);
#398=EDGE_CURVE('',#320,#301,#153,.T.);
#399=EDGE_CURVE('',#320,#319,#154,.T.);
#400=EDGE_CURVE('',#304,#321,#155,.T.);
#401=EDGE_CURVE('',#321,#320,#274,.T.);
#402=EDGE_CURVE('',#322,#323,#156,.T.);
#403=EDGE_CURVE('',#323,#324,#275,.T.);
#404=EDGE_CURVE('',#324,#325,#157,.T.);
#405=EDGE_CURVE('',#325,#326,#276,.T.);
#406=EDGE_CURVE('',#326,#327,#158,.T.);
#407=EDGE_CURVE('',#327,#328,#277,.T.);
#408=EDGE_CURVE('',#328,#329,#159,.T.);
#409=EDGE_CURVE('',#329,#322,#278,.T.);
#410=EDGE_CURVE('',#318,#330,#279,.T.);
#411=EDGE_CURVE('',#330,#310,#160,.T.);
#412=EDGE_CURVE('',#331,#321,#161,.T.);
#413=EDGE_CURVE('',#332,#331,#280,.T.);
#414=EDGE_CURVE('',#330,#332,#162,.T.);
#415=EDGE_CURVE('',#333,#334,#163,.T.);
#416=EDGE_CURVE('',#335,#333,#281,.T.);
#417=EDGE_CURVE('',#336,#335,#164,.T.);
#418=EDGE_CURVE('',#337,#336,#282,.T.);
#419=EDGE_CURVE('',#338,#337,#165,.T.);
#420=EDGE_CURVE('',#339,#338,#283,.T.);
#421=EDGE_CURVE('',#340,#339,#166,.T.);
#422=EDGE_CURVE('',#334,#340,#284,.T.);
#423=EDGE_CURVE('',#331,#306,#167,.T.);
#424=EDGE_CURVE('',#308,#332,#168,.T.);
#425=EDGE_CURVE('',#335,#341,#169,.T.);
#426=EDGE_CURVE('',#341,#342,#170,.T.);
#427=EDGE_CURVE('',#342,#336,#171,.T.);
#428=EDGE_CURVE('',#343,#338,#172,.T.);
#429=EDGE_CURVE('',#344,#343,#285,.T.);
#430=EDGE_CURVE('',#328,#344,#173,.T.);
#431=EDGE_CURVE('',#345,#327,#174,.T.);
#432=EDGE_CURVE('',#346,#345,#286,.T.);
#433=EDGE_CURVE('',#339,#346,#175,.T.);
#434=EDGE_CURVE('',#337,#347,#176,.T.);
#435=EDGE_CURVE('',#347,#343,#177,.T.);
#436=EDGE_CURVE('',#348,#333,#178,.T.);
#437=EDGE_CURVE('',#349,#348,#287,.T.);
#438=EDGE_CURVE('',#324,#349,#179,.T.);
#439=EDGE_CURVE('',#350,#323,#180,.T.);
#440=EDGE_CURVE('',#341,#350,#288,.T.);
#441=EDGE_CURVE('',#351,#342,#289,.T.);
#442=EDGE_CURVE('',#322,#351,#181,.T.);
#443=EDGE_CURVE('',#352,#329,#182,.T.);
#444=EDGE_CURVE('',#347,#352,#290,.T.);
#445=EDGE_CURVE('',#352,#344,#183,.T.);
#446=EDGE_CURVE('',#353,#340,#184,.T.);
#447=EDGE_CURVE('',#354,#353,#291,.T.);
#448=EDGE_CURVE('',#326,#354,#185,.T.);
#449=EDGE_CURVE('',#355,#325,#186,.T.);
#450=EDGE_CURVE('',#356,#355,#292,.T.);
#451=EDGE_CURVE('',#334,#356,#187,.T.);
#452=EDGE_CURVE('',#356,#348,#188,.T.);
#453=EDGE_CURVE('',#346,#353,#189,.T.);
#454=EDGE_CURVE('',#345,#354,#190,.T.);
#455=EDGE_CURVE('',#355,#349,#191,.T.);
#456=EDGE_CURVE('',#350,#351,#192,.T.);
#457=ORIENTED_EDGE('',*,*,#357,.F.);
#458=ORIENTED_EDGE('',*,*,#358,.T.);
#459=ORIENTED_EDGE('',*,*,#359,.T.);
#460=ORIENTED_EDGE('',*,*,#358,.F.);
#461=ORIENTED_EDGE('',*,*,#359,.F.);
#462=ORIENTED_EDGE('',*,*,#360,.F.);
#463=ORIENTED_EDGE('',*,*,#361,.T.);
#464=ORIENTED_EDGE('',*,*,#362,.T.);
#465=ORIENTED_EDGE('',*,*,#361,.F.);
#466=ORIENTED_EDGE('',*,*,#362,.F.);
#467=ORIENTED_EDGE('',*,*,#363,.F.);
#468=ORIENTED_EDGE('',*,*,#364,.T.);
#469=ORIENTED_EDGE('',*,*,#365,.T.);
#470=ORIENTED_EDGE('',*,*,#364,.F.);
#471=ORIENTED_EDGE('',*,*,#365,.F.);
#472=ORIENTED_EDGE('',*,*,#366,.F.);
#473=ORIENTED_EDGE('',*,*,#367,.T.);
#474=ORIENTED_EDGE('',*,*,#368,.T.);
#475=ORIENTED_EDGE('',*,*,#367,.F.);
#476=ORIENTED_EDGE('',*,*,#368,.F.);
#477=ORIENTED_EDGE('',*,*,#369,.T.);
#478=ORIENTED_EDGE('',*,*,#370,.T.);
#479=ORIENTED_EDGE('',*,*,#371,.T.);
#480=ORIENTED_EDGE('',*,*,#372,.T.);
#481=ORIENTED_EDGE('',*,*,#373,.T.);
#482=ORIENTED_EDGE('',*,*,#374,.T.);
#483=ORIENTED_EDGE('',*,*,#371,.F.);
#484=ORIENTED_EDGE('',*,*,#375,.T.);
#485=ORIENTED_EDGE('',*,*,#376,.T.);
#486=ORIENTED_EDGE('',*,*,#377,.T.);
#487=ORIENTED_EDGE('',*,*,#373,.F.);
#488=ORIENTED_EDGE('',*,*,#378,.T.);
#489=ORIENTED_EDGE('',*,*,#379,.T.);
#490=ORIENTED_EDGE('',*,*,#380,.T.);
#491=ORIENTED_EDGE('',*,*,#376,.F.);
#492=ORIENTED_EDGE('',*,*,#381,.T.);
#493=ORIENTED_EDGE('',*,*,#382,.T.);
#494=ORIENTED_EDGE('',*,*,#383,.T.);
#495=ORIENTED_EDGE('',*,*,#379,.F.);
#496=ORIENTED_EDGE('',*,*,#384,.T.);
#497=ORIENTED_EDGE('',*,*,#385,.T.);
#498=ORIENTED_EDGE('',*,*,#386,.T.);
#499=ORIENTED_EDGE('',*,*,#382,.F.);
#500=ORIENTED_EDGE('',*,*,#387,.T.);
#501=ORIENTED_EDGE('',*,*,#388,.T.);
#502=ORIENTED_EDGE('',*,*,#389,.T.);
#503=ORIENTED_EDGE('',*,*,#385,.F.);
#504=ORIENTED_EDGE('',*,*,#390,.T.);
#505=ORIENTED_EDGE('',*,*,#388,.F.);
#506=ORIENTED_EDGE('',*,*,#391,.T.);
#507=ORIENTED_EDGE('',*,*,#369,.F.);
#508=ORIENTED_EDGE('',*,*,#392,.T.);
#509=ORIENTED_EDGE('',*,*,#386,.F.);
#510=ORIENTED_EDGE('',*,*,#393,.F.);
#511=ORIENTED_EDGE('',*,*,#394,.T.);
#512=ORIENTED_EDGE('',*,*,#395,.F.);
#513=ORIENTED_EDGE('',*,*,#389,.F.);
#514=ORIENTED_EDGE('',*,*,#396,.T.);
#515=ORIENTED_EDGE('',*,*,#397,.T.);
#516=ORIENTED_EDGE('',*,*,#393,.T.);
#517=ORIENTED_EDGE('',*,*,#392,.F.);
#518=ORIENTED_EDGE('',*,*,#398,.F.);
#519=ORIENTED_EDGE('',*,*,#399,.T.);
#520=ORIENTED_EDGE('',*,*,#396,.F.);
#521=ORIENTED_EDGE('',*,*,#372,.F.);
#522=ORIENTED_EDGE('',*,*,#400,.T.);
#523=ORIENTED_EDGE('',*,*,#401,.T.);
#524=ORIENTED_EDGE('',*,*,#398,.T.);
#525=ORIENTED_EDGE('',*,*,#370,.F.);
#526=ORIENTED_EDGE('',*,*,#391,.F.);
#527=ORIENTED_EDGE('',*,*,#390,.F.);
#528=ORIENTED_EDGE('',*,*,#387,.F.);
#529=ORIENTED_EDGE('',*,*,#384,.F.);
#530=ORIENTED_EDGE('',*,*,#381,.F.);
#531=ORIENTED_EDGE('',*,*,#378,.F.);
#532=ORIENTED_EDGE('',*,*,#375,.F.);
#533=ORIENTED_EDGE('',*,*,#402,.T.);
#534=ORIENTED_EDGE('',*,*,#403,.T.);
#535=ORIENTED_EDGE('',*,*,#404,.T.);
#536=ORIENTED_EDGE('',*,*,#405,.T.);
#537=ORIENTED_EDGE('',*,*,#406,.T.);
#538=ORIENTED_EDGE('',*,*,#407,.T.);
#539=ORIENTED_EDGE('',*,*,#408,.T.);
#540=ORIENTED_EDGE('',*,*,#409,.T.);
#541=ORIENTED_EDGE('',*,*,#383,.F.);
#542=ORIENTED_EDGE('',*,*,#395,.T.);
#543=ORIENTED_EDGE('',*,*,#410,.T.);
#544=ORIENTED_EDGE('',*,*,#411,.T.);
#545=ORIENTED_EDGE('',*,*,#410,.F.);
#546=ORIENTED_EDGE('',*,*,#394,.F.);
#547=ORIENTED_EDGE('',*,*,#397,.F.);
#548=ORIENTED_EDGE('',*,*,#399,.F.);
#549=ORIENTED_EDGE('',*,*,#401,.F.);
#550=ORIENTED_EDGE('',*,*,#412,.F.);
#551=ORIENTED_EDGE('',*,*,#413,.F.);
#552=ORIENTED_EDGE('',*,*,#414,.F.);
#553=ORIENTED_EDGE('',*,*,#415,.F.);
#554=ORIENTED_EDGE('',*,*,#416,.F.);
#555=ORIENTED_EDGE('',*,*,#417,.F.);
#556=ORIENTED_EDGE('',*,*,#418,.F.);
#557=ORIENTED_EDGE('',*,*,#419,.F.);
#558=ORIENTED_EDGE('',*,*,#420,.F.);
#559=ORIENTED_EDGE('',*,*,#421,.F.);
#560=ORIENTED_EDGE('',*,*,#422,.F.);
#561=ORIENTED_EDGE('',*,*,#366,.T.);
#562=ORIENTED_EDGE('',*,*,#363,.T.);
#563=ORIENTED_EDGE('',*,*,#360,.T.);
#564=ORIENTED_EDGE('',*,*,#357,.T.);
#565=ORIENTED_EDGE('',*,*,#374,.F.);
#566=ORIENTED_EDGE('',*,*,#423,.F.);
#567=ORIENTED_EDGE('',*,*,#412,.T.);
#568=ORIENTED_EDGE('',*,*,#400,.F.);
#569=ORIENTED_EDGE('',*,*,#377,.F.);
#570=ORIENTED_EDGE('',*,*,#424,.T.);
#571=ORIENTED_EDGE('',*,*,#413,.T.);
#572=ORIENTED_EDGE('',*,*,#423,.T.);
#573=ORIENTED_EDGE('',*,*,#417,.T.);
#574=ORIENTED_EDGE('',*,*,#425,.T.);
#575=ORIENTED_EDGE('',*,*,#426,.T.);
#576=ORIENTED_EDGE('',*,*,#427,.T.);
#577=ORIENTED_EDGE('',*,*,#420,.T.);
#578=ORIENTED_EDGE('',*,*,#428,.F.);
#579=ORIENTED_EDGE('',*,*,#429,.F.);
#580=ORIENTED_EDGE('',*,*,#430,.F.);
#581=ORIENTED_EDGE('',*,*,#407,.F.);
#582=ORIENTED_EDGE('',*,*,#431,.F.);
#583=ORIENTED_EDGE('',*,*,#432,.F.);
#584=ORIENTED_EDGE('',*,*,#433,.F.);
#585=ORIENTED_EDGE('',*,*,#419,.T.);
#586=ORIENTED_EDGE('',*,*,#434,.T.);
#587=ORIENTED_EDGE('',*,*,#435,.T.);
#588=ORIENTED_EDGE('',*,*,#428,.T.);
#589=ORIENTED_EDGE('',*,*,#416,.T.);
#590=ORIENTED_EDGE('',*,*,#436,.F.);
#591=ORIENTED_EDGE('',*,*,#437,.F.);
#592=ORIENTED_EDGE('',*,*,#438,.F.);
#593=ORIENTED_EDGE('',*,*,#403,.F.);
#594=ORIENTED_EDGE('',*,*,#439,.F.);
#595=ORIENTED_EDGE('',*,*,#440,.F.);
#596=ORIENTED_EDGE('',*,*,#425,.F.);
#597=ORIENTED_EDGE('',*,*,#418,.T.);
#598=ORIENTED_EDGE('',*,*,#427,.F.);
#599=ORIENTED_EDGE('',*,*,#441,.F.);
#600=ORIENTED_EDGE('',*,*,#442,.F.);
#601=ORIENTED_EDGE('',*,*,#409,.F.);
#602=ORIENTED_EDGE('',*,*,#443,.F.);
#603=ORIENTED_EDGE('',*,*,#444,.F.);
#604=ORIENTED_EDGE('',*,*,#434,.F.);
#605=ORIENTED_EDGE('',*,*,#380,.F.);
#606=ORIENTED_EDGE('',*,*,#411,.F.);
#607=ORIENTED_EDGE('',*,*,#414,.T.);
#608=ORIENTED_EDGE('',*,*,#424,.F.);
#609=ORIENTED_EDGE('',*,*,#444,.T.);
#610=ORIENTED_EDGE('',*,*,#445,.T.);
#611=ORIENTED_EDGE('',*,*,#429,.T.);
#612=ORIENTED_EDGE('',*,*,#435,.F.);
#613=ORIENTED_EDGE('',*,*,#422,.T.);
#614=ORIENTED_EDGE('',*,*,#446,.F.);
#615=ORIENTED_EDGE('',*,*,#447,.F.);
#616=ORIENTED_EDGE('',*,*,#448,.F.);
#617=ORIENTED_EDGE('',*,*,#405,.F.);
#618=ORIENTED_EDGE('',*,*,#449,.F.);
#619=ORIENTED_EDGE('',*,*,#450,.F.);
#620=ORIENTED_EDGE('',*,*,#451,.F.);
#621=ORIENTED_EDGE('',*,*,#415,.T.);
#622=ORIENTED_EDGE('',*,*,#451,.T.);
#623=ORIENTED_EDGE('',*,*,#452,.T.);
#624=ORIENTED_EDGE('',*,*,#436,.T.);
#625=ORIENTED_EDGE('',*,*,#447,.T.);
#626=ORIENTED_EDGE('',*,*,#453,.F.);
#627=ORIENTED_EDGE('',*,*,#432,.T.);
#628=ORIENTED_EDGE('',*,*,#454,.T.);
#629=ORIENTED_EDGE('',*,*,#450,.T.);
#630=ORIENTED_EDGE('',*,*,#455,.T.);
#631=ORIENTED_EDGE('',*,*,#437,.T.);
#632=ORIENTED_EDGE('',*,*,#452,.F.);
#633=ORIENTED_EDGE('',*,*,#449,.T.);
#634=ORIENTED_EDGE('',*,*,#404,.F.);
#635=ORIENTED_EDGE('',*,*,#438,.T.);
#636=ORIENTED_EDGE('',*,*,#455,.F.);
#637=ORIENTED_EDGE('',*,*,#421,.T.);
#638=ORIENTED_EDGE('',*,*,#433,.T.);
#639=ORIENTED_EDGE('',*,*,#453,.T.);
#640=ORIENTED_EDGE('',*,*,#446,.T.);
#641=ORIENTED_EDGE('',*,*,#441,.T.);
#642=ORIENTED_EDGE('',*,*,#426,.F.);
#643=ORIENTED_EDGE('',*,*,#440,.T.);
#644=ORIENTED_EDGE('',*,*,#456,.T.);
#645=ORIENTED_EDGE('',*,*,#442,.T.);
#646=ORIENTED_EDGE('',*,*,#456,.F.);
#647=ORIENTED_EDGE('',*,*,#439,.T.);
#648=ORIENTED_EDGE('',*,*,#402,.F.);
#649=ORIENTED_EDGE('',*,*,#448,.T.);
#650=ORIENTED_EDGE('',*,*,#454,.F.);
#651=ORIENTED_EDGE('',*,*,#431,.T.);
#652=ORIENTED_EDGE('',*,*,#406,.F.);
#653=ORIENTED_EDGE('',*,*,#443,.T.);
#654=ORIENTED_EDGE('',*,*,#408,.F.);
#655=ORIENTED_EDGE('',*,*,#430,.T.);
#656=ORIENTED_EDGE('',*,*,#445,.F.);
#657=CYLINDRICAL_SURFACE('',#729,5.);
#658=CYLINDRICAL_SURFACE('',#733,5.);
#659=CYLINDRICAL_SURFACE('',#737,5.);
#660=CYLINDRICAL_SURFACE('',#741,5.);
#661=CYLINDRICAL_SURFACE('',#750,3.);
#662=CYLINDRICAL_SURFACE('',#756,3.);
#663=CYLINDRICAL_SURFACE('',#762,3.);
#664=CYLINDRICAL_SURFACE('',#768,3.);
#665=CYLINDRICAL_SURFACE('',#770,10.);
#666=CYLINDRICAL_SURFACE('',#773,10.);
#667=CYLINDRICAL_SURFACE('',#780,10.);
#668=CYLINDRICAL_SURFACE('',#789,10.);
#669=CYLINDRICAL_SURFACE('',#791,12.5);
#670=CYLINDRICAL_SURFACE('',#795,12.5);
#671=CYLINDRICAL_SURFACE('',#798,12.5);
#672=CYLINDRICAL_SURFACE('',#803,12.5);
#673=ADVANCED_FACE('',(#47),#657,.F.);
#674=ADVANCED_FACE('',(#48),#25,.T.);
#675=ADVANCED_FACE('',(#49),#658,.F.);
#676=ADVANCED_FACE('',(#50),#26,.T.);
#677=ADVANCED_FACE('',(#51),#659,.F.);
#678=ADVANCED_FACE('',(#52),#27,.T.);
#679=ADVANCED_FACE('',(#53),#660,.F.);
#680=ADVANCED_FACE('',(#54),#28,.T.);
#681=ADVANCED_FACE('',(#55),#21,.T.);
#682=ADVANCED_FACE('',(#56),#661,.T.);
#683=ADVANCED_FACE('',(#57),#22,.T.);
#684=ADVANCED_FACE('',(#58),#662,.T.);
#685=ADVANCED_FACE('',(#59),#23,.T.);
#686=ADVANCED_FACE('',(#60),#663,.T.);
#687=ADVANCED_FACE('',(#61),#24,.T.);
#688=ADVANCED_FACE('',(#62),#664,.T.);
#689=ADVANCED_FACE('',(#63),#29,.T.);
#690=ADVANCED_FACE('',(#64),#665,.T.);
#691=ADVANCED_FACE('',(#65),#30,.T.);
#692=ADVANCED_FACE('',(#66),#666,.T.);
#693=ADVANCED_FACE('',(#67,#15),#31,.T.);
#694=ADVANCED_FACE('',(#68),#667,.T.);
#695=ADVANCED_FACE('',(#69,#16,#17,#18,#19,#20),#32,.F.);
#696=ADVANCED_FACE('',(#70),#33,.T.);
#697=ADVANCED_FACE('',(#71),#668,.T.);
#698=ADVANCED_FACE('',(#72),#34,.T.);
#699=ADVANCED_FACE('',(#73),#669,.T.);
#700=ADVANCED_FACE('',(#74),#35,.T.);
#701=ADVANCED_FACE('',(#75),#670,.T.);
#702=ADVANCED_FACE('',(#76),#671,.T.);
#703=ADVANCED_FACE('',(#77),#36,.T.);
#704=ADVANCED_FACE('',(#78),#37,.T.);
#705=ADVANCED_FACE('',(#79),#672,.T.);
#706=ADVANCED_FACE('',(#80),#38,.T.);
#707=ADVANCED_FACE('',(#81),#39,.T.);
#708=ADVANCED_FACE('',(#82),#40,.T.);
#709=ADVANCED_FACE('',(#83),#41,.T.);
#710=ADVANCED_FACE('',(#84),#42,.T.);
#711=ADVANCED_FACE('',(#85),#43,.T.);
#712=ADVANCED_FACE('',(#86),#44,.T.);
#713=ADVANCED_FACE('',(#87),#45,.T.);
#714=ADVANCED_FACE('',(#88),#46,.T.);
#715=CLOSED_SHELL('',(#673,#674,#675,#676,#677,#678,#679,#680,#681,#682,
#683,#684,#685,#686,#687,#688,#689,#690,#691,#692,#693,#694,#695,#696,#697,
#698,#699,#700,#701,#702,#703,#704,#705,#706,#707,#708,#709,#710,#711,#712,
#713,#714));
#716=DERIVED_UNIT_ELEMENT(#718,1.);
#717=DERIVED_UNIT_ELEMENT(#1257,-3.);
#718=(
MASS_UNIT()
NAMED_UNIT(*)
SI_UNIT(.KILO.,.GRAM.)
);
#719=DERIVED_UNIT((#716,#717));
#720=MEASURE_REPRESENTATION_ITEM('density measure',
POSITIVE_RATIO_MEASURE(7850.),#719);
#721=PROPERTY_DEFINITION_REPRESENTATION(#726,#723);
#722=PROPERTY_DEFINITION_REPRESENTATION(#727,#724);
#723=REPRESENTATION('material name',(#725),#1254);
#724=REPRESENTATION('density',(#720),#1254);
#725=DESCRIPTIVE_REPRESENTATION_ITEM('Steel','Steel');
#726=PROPERTY_DEFINITION('material property','material name',#1264);
#727=PROPERTY_DEFINITION('material property','density of part',#1264);
#728=AXIS2_PLACEMENT_3D('',#1045,#815,#816);
#729=AXIS2_PLACEMENT_3D('',#1046,#817,#818);
#730=AXIS2_PLACEMENT_3D('',#1048,#819,#820);
#731=AXIS2_PLACEMENT_3D('',#1051,#822,#823);
#732=AXIS2_PLACEMENT_3D('',#1052,#824,#825);
#733=AXIS2_PLACEMENT_3D('',#1053,#826,#827);
#734=AXIS2_PLACEMENT_3D('',#1055,#828,#829);
#735=AXIS2_PLACEMENT_3D('',#1058,#831,#832);
#736=AXIS2_PLACEMENT_3D('',#1059,#833,#834);
#737=AXIS2_PLACEMENT_3D('',#1060,#835,#836);
#738=AXIS2_PLACEMENT_3D('',#1062,#837,#838);
#739=AXIS2_PLACEMENT_3D('',#1065,#840,#841);
#740=AXIS2_PLACEMENT_3D('',#1066,#842,#843);
#741=AXIS2_PLACEMENT_3D('',#1067,#844,#845);
#742=AXIS2_PLACEMENT_3D('',#1069,#846,#847);
#743=AXIS2_PLACEMENT_3D('',#1072,#849,#850);
#744=AXIS2_PLACEMENT_3D('',#1073,#851,#852);
#745=AXIS2_PLACEMENT_3D('',#1074,#853,#854);
#746=AXIS2_PLACEMENT_3D('',#1077,#855,#856);
#747=AXIS2_PLACEMENT_3D('',#1079,#857,#858);
#748=AXIS2_PLACEMENT_3D('',#1081,#859,#860);
#749=AXIS2_PLACEMENT_3D('',#1082,#861,#862);
#750=AXIS2_PLACEMENT_3D('',#1083,#863,#864);
#751=AXIS2_PLACEMENT_3D('',#1086,#865,#866);
#752=AXIS2_PLACEMENT_3D('',#1089,#869,#870);
#753=AXIS2_PLACEMENT_3D('',#1092,#871,#872);
#754=AXIS2_PLACEMENT_3D('',#1093,#873,#874);
#755=AXIS2_PLACEMENT_3D('',#1094,#875,#876);
#756=AXIS2_PLACEMENT_3D('',#1095,#877,#878);
#757=AXIS2_PLACEMENT_3D('',#1098,#879,#880);
#758=AXIS2_PLACEMENT_3D('',#1101,#883,#884);
#759=AXIS2_PLACEMENT_3D('',#1104,#885,#886);
#760=AXIS2_PLACEMENT_3D('',#1105,#887,#888);
#761=AXIS2_PLACEMENT_3D('',#1106,#889,#890);
#762=AXIS2_PLACEMENT_3D('',#1107,#891,#892);
#763=AXIS2_PLACEMENT_3D('',#1110,#893,#894);
#764=AXIS2_PLACEMENT_3D('',#1113,#897,#898);
#765=AXIS2_PLACEMENT_3D('',#1116,#899,#900);
#766=AXIS2_PLACEMENT_3D('',#1117,#901,#902);
#767=AXIS2_PLACEMENT_3D('',#1118,#903,#904);
#768=AXIS2_PLACEMENT_3D('',#1119,#905,#906);
#769=AXIS2_PLACEMENT_3D('',#1122,#909,#910);
#770=AXIS2_PLACEMENT_3D('',#1128,#914,#915);
#771=AXIS2_PLACEMENT_3D('',#1131,#917,#918);
#772=AXIS2_PLACEMENT_3D('',#1132,#919,#920);
#773=AXIS2_PLACEMENT_3D('',#1136,#923,#924);
#774=AXIS2_PLACEMENT_3D('',#1139,#926,#927);
#775=AXIS2_PLACEMENT_3D('',#1140,#928,#929);
#776=AXIS2_PLACEMENT_3D('',#1145,#931,#932);
#777=AXIS2_PLACEMENT_3D('',#1149,#934,#935);
#778=AXIS2_PLACEMENT_3D('',#1153,#937,#938);
#779=AXIS2_PLACEMENT_3D('',#1156,#940,#941);
#780=AXIS2_PLACEMENT_3D('',#1157,#942,#943);
#781=AXIS2_PLACEMENT_3D('',#1159,#944,#945);
#782=AXIS2_PLACEMENT_3D('',#1161,#947,#948);
#783=AXIS2_PLACEMENT_3D('',#1165,#950,#951);
#784=AXIS2_PLACEMENT_3D('',#1171,#954,#955);
#785=AXIS2_PLACEMENT_3D('',#1175,#957,#958);
#786=AXIS2_PLACEMENT_3D('',#1179,#960,#961);
#787=AXIS2_PLACEMENT_3D('',#1182,#963,#964);
#788=AXIS2_PLACEMENT_3D('',#1183,#965,#966);
#789=AXIS2_PLACEMENT_3D('',#1185,#968,#969);
#790=AXIS2_PLACEMENT_3D('',#1187,#971,#972);
#791=AXIS2_PLACEMENT_3D('',#1193,#976,#977);
#792=AXIS2_PLACEMENT_3D('',#1197,#979,#980);
#793=AXIS2_PLACEMENT_3D('',#1202,#983,#984);
#794=AXIS2_PLACEMENT_3D('',#1204,#986,#987);
#795=AXIS2_PLACEMENT_3D('',#1208,#990,#991);
#796=AXIS2_PLACEMENT_3D('',#1212,#993,#994);
#797=AXIS2_PLACEMENT_3D('',#1216,#997,#998);
#798=AXIS2_PLACEMENT_3D('',#1217,#999,#1000);
#799=AXIS2_PLACEMENT_3D('',#1219,#1001,#1002);
#800=AXIS2_PLACEMENT_3D('',#1223,#1005,#1006);
#801=AXIS2_PLACEMENT_3D('',#1224,#1007,#1008);
#802=AXIS2_PLACEMENT_3D('',#1225,#1009,#1010);
#803=AXIS2_PLACEMENT_3D('',#1227,#1012,#1013);
#804=AXIS2_PLACEMENT_3D('',#1231,#1015,#1016);
#805=AXIS2_PLACEMENT_3D('',#1236,#1019,#1020);
#806=AXIS2_PLACEMENT_3D('',#1238,#1022,#1023);
#807=AXIS2_PLACEMENT_3D('',#1240,#1025,#1026);
#808=AXIS2_PLACEMENT_3D('',#1243,#1029,#1030);
#809=AXIS2_PLACEMENT_3D('',#1245,#1032,#1033);
#810=AXIS2_PLACEMENT_3D('',#1246,#1034,#1035);
#811=AXIS2_PLACEMENT_3D('',#1247,#1036,#1037);
#812=AXIS2_PLACEMENT_3D('',#1249,#1039,#1040);
#813=AXIS2_PLACEMENT_3D('',#1250,#1041,#1042);
#814=AXIS2_PLACEMENT_3D('',#1251,#1043,#1044);
#815=DIRECTION('axis',(0.,0.,1.));
#816=DIRECTION('refdir',(1.,0.,0.));
#817=DIRECTION('center_axis',(0.,1.,0.));
#818=DIRECTION('ref_axis',(1.,0.,0.));
#819=DIRECTION('center_axis',(0.,1.,0.));
#820=DIRECTION('ref_axis',(1.,0.,0.));
#821=DIRECTION('',(0.,1.,0.));
#822=DIRECTION('center_axis',(0.,1.,0.));
#823=DIRECTION('ref_axis',(1.,0.,0.));
#824=DIRECTION('center_axis',(0.,-1.,0.));
#825=DIRECTION('ref_axis',(1.,0.,0.));
#826=DIRECTION('center_axis',(0.,1.,0.));
#827=DIRECTION('ref_axis',(1.,0.,0.));
#828=DIRECTION('center_axis',(0.,1.,0.));
#829=DIRECTION('ref_axis',(1.,0.,0.));
#830=DIRECTION('',(0.,1.,0.));
#831=DIRECTION('center_axis',(0.,1.,0.));
#832=DIRECTION('ref_axis',(1.,0.,0.));
#833=DIRECTION('center_axis',(0.,-1.,0.));
#834=DIRECTION('ref_axis',(1.,0.,0.));
#835=DIRECTION('center_axis',(0.,1.,0.));
#836=DIRECTION('ref_axis',(1.,0.,0.));
#837=DIRECTION('center_axis',(0.,1.,0.));
#838=DIRECTION('ref_axis',(1.,0.,0.));
#839=DIRECTION('',(0.,1.,0.));
#840=DIRECTION('center_axis',(0.,1.,0.));
#841=DIRECTION('ref_axis',(1.,0.,0.));
#842=DIRECTION('center_axis',(0.,-1.,0.));
#843=DIRECTION('ref_axis',(1.,0.,0.));
#844=DIRECTION('center_axis',(0.,1.,0.));
#845=DIRECTION('ref_axis',(1.,0.,0.));
#846=DIRECTION('center_axis',(0.,1.,0.));
#847=DIRECTION('ref_axis',(1.,0.,0.));
#848=DIRECTION('',(0.,1.,0.));
#849=DIRECTION('center_axis',(0.,1.,0.));
#850=DIRECTION('ref_axis',(1.,0.,0.));
#851=DIRECTION('center_axis',(0.,-1.,0.));
#852=DIRECTION('ref_axis',(1.,0.,0.));
#853=DIRECTION('center_axis',(0.,-1.,0.));
#854=DIRECTION('ref_axis',(0.,0.,-1.));
#855=DIRECTION('center_axis',(-1.,0.,0.));
#856=DIRECTION('ref_axis',(0.,0.,1.));
#857=DIRECTION('center_axis',(0.,-1.,0.));
#858=DIRECTION('ref_axis',(-0.707106781186547,0.,0.707106781186547));
#859=DIRECTION('center_axis',(0.,0.,1.));
#860=DIRECTION('ref_axis',(0.,1.,0.));
#861=DIRECTION('center_axis',(0.,1.,0.));
#862=DIRECTION('ref_axis',(-0.707106781186547,0.,0.707106781186547));
#863=DIRECTION('center_axis',(0.,0.,1.));
#864=DIRECTION('ref_axis',(-0.707106781186548,0.707106781186548,0.));
#865=DIRECTION('center_axis',(0.,0.,1.));
#866=DIRECTION('ref_axis',(0.,1.,0.));
#867=DIRECTION('',(0.,0.,1.));
#868=DIRECTION('',(0.,0.,-1.));
#869=DIRECTION('center_axis',(0.,-1.,0.));
#870=DIRECTION('ref_axis',(0.,0.,-1.));
#871=DIRECTION('center_axis',(-1.,0.,0.));
#872=DIRECTION('ref_axis',(0.,1.,0.));
#873=DIRECTION('center_axis',(0.,1.,0.));
#874=DIRECTION('ref_axis',(-0.707106781186547,0.,-0.707106781186547));
#875=DIRECTION('center_axis',(0.,-1.,0.));
#876=DIRECTION('ref_axis',(-0.707106781186547,0.,-0.707106781186547));
#877=DIRECTION('center_axis',(-1.,0.,0.));
#878=DIRECTION('ref_axis',(0.,0.707106781186548,-0.707106781186548));
#879=DIRECTION('center_axis',(-1.,0.,0.));
#880=DIRECTION('ref_axis',(0.,1.,0.));
#881=DIRECTION('',(-1.,0.,0.));
#882=DIRECTION('',(1.,0.,0.));
#883=DIRECTION('center_axis',(0.,-1.,0.));
#884=DIRECTION('ref_axis',(0.,0.,-1.));
#885=DIRECTION('center_axis',(0.,0.,-1.));
#886=DIRECTION('ref_axis',(0.,1.,0.));
#887=DIRECTION('center_axis',(0.,1.,0.));
#888=DIRECTION('ref_axis',(0.707106781186548,0.,-0.707106781186547));
#889=DIRECTION('center_axis',(0.,-1.,0.));
#890=DIRECTION('ref_axis',(0.707106781186548,0.,-0.707106781186547));
#891=DIRECTION('center_axis',(0.,0.,-1.));
#892=DIRECTION('ref_axis',(0.707106781186545,0.70710678118655,0.));
#893=DIRECTION('center_axis',(0.,0.,-1.));
#894=DIRECTION('ref_axis',(0.,1.,0.));
#895=DIRECTION('',(0.,0.,-1.));
#896=DIRECTION('',(0.,0.,1.));
#897=DIRECTION('center_axis',(0.,-1.,0.));
#898=DIRECTION('ref_axis',(0.,0.,-1.));
#899=DIRECTION('center_axis',(1.,0.,0.));
#900=DIRECTION('ref_axis',(0.,1.,0.));
#901=DIRECTION('center_axis',(0.,1.,0.));
#902=DIRECTION('ref_axis',(0.707106781186548,0.,0.707106781186547));
#903=DIRECTION('center_axis',(0.,-1.,0.));
#904=DIRECTION('ref_axis',(0.707106781186548,0.,0.707106781186547));
#905=DIRECTION('center_axis',(1.,0.,0.));
#906=DIRECTION('ref_axis',(0.,0.707106781186548,0.707106781186548));
#907=DIRECTION('',(-1.,0.,0.));
#908=DIRECTION('',(1.,0.,0.));
#909=DIRECTION('center_axis',(1.,0.,0.));
#910=DIRECTION('ref_axis',(0.,0.,-1.));
#911=DIRECTION('',(0.,1.,0.));
#912=DIRECTION('',(0.,0.,-1.));
#913=DIRECTION('',(0.,-1.,0.));
#914=DIRECTION('center_axis',(0.,1.,0.));
#915=DIRECTION('ref_axis',(0.707106781186547,0.,0.707106781186547));
#916=DIRECTION('',(0.,-1.,0.));
#917=DIRECTION('center_axis',(0.,1.,0.));
#918=DIRECTION('ref_axis',(0.707106781186547,0.,0.707106781186547));
#919=DIRECTION('center_axis',(0.,0.,1.));
#920=DIRECTION('ref_axis',(1.,0.,0.));
#921=DIRECTION('',(0.,1.,0.));
#922=DIRECTION('',(1.,0.,0.));
#923=DIRECTION('center_axis',(0.,-1.,0.));
#924=DIRECTION('ref_axis',(-0.707106781186547,0.,0.707106781186547));
#925=DIRECTION('',(0.,-1.,0.));
#926=DIRECTION('center_axis',(0.,1.,0.));
#927=DIRECTION('ref_axis',(-0.707106781186547,0.,0.707106781186547));
#928=DIRECTION('center_axis',(0.,1.,0.));
#929=DIRECTION('ref_axis',(0.,0.,1.));
#930=DIRECTION('',(1.,0.,0.));
#931=DIRECTION('center_axis',(0.,1.,0.));
#932=DIRECTION('ref_axis',(-1.,0.,0.));
#933=DIRECTION('',(0.,0.,1.));
#934=DIRECTION('center_axis',(0.,1.,0.));
#935=DIRECTION('ref_axis',(-1.,0.,0.));
#936=DIRECTION('',(-1.,0.,-1.85037170770859E-16));
#937=DIRECTION('center_axis',(0.,1.,0.));
#938=DIRECTION('ref_axis',(-1.,0.,0.));
#939=DIRECTION('',(0.,0.,-1.));
#940=DIRECTION('center_axis',(0.,1.,0.));
#941=DIRECTION('ref_axis',(-1.,0.,0.));
#942=DIRECTION('center_axis',(0.,1.,0.));
#943=DIRECTION('ref_axis',(0.707106781186547,0.,-0.707106781186547));
#944=DIRECTION('center_axis',(0.,1.,0.));
#945=DIRECTION('ref_axis',(0.707106781186547,0.,-0.707106781186547));
#946=DIRECTION('',(0.,1.,0.));
#947=DIRECTION('center_axis',(0.,1.,0.));
#948=DIRECTION('ref_axis',(0.,0.,1.));
#949=DIRECTION('',(0.,0.,1.));
#950=DIRECTION('center_axis',(0.,1.,0.));
#951=DIRECTION('ref_axis',(-0.707106781186547,0.,-0.707106781186547));
#952=DIRECTION('',(-1.,0.,0.));
#953=DIRECTION('',(8.3790416952842E-17,0.,1.));
#954=DIRECTION('center_axis',(0.,1.,0.));
#955=DIRECTION('ref_axis',(-1.,0.,0.));
#956=DIRECTION('',(1.,0.,0.));
#957=DIRECTION('center_axis',(0.,1.,0.));
#958=DIRECTION('ref_axis',(-1.,0.,0.));
#959=DIRECTION('',(-8.3790416952842E-17,0.,-1.));
#960=DIRECTION('center_axis',(0.,1.,0.));
#961=DIRECTION('ref_axis',(-1.,0.,0.));
#962=DIRECTION('',(-1.,0.,-1.67580833905684E-16));
#963=DIRECTION('center_axis',(0.,1.,0.));
#964=DIRECTION('ref_axis',(-1.,0.,0.));
#965=DIRECTION('center_axis',(-1.,0.,0.));
#966=DIRECTION('ref_axis',(0.,0.,1.));
#967=DIRECTION('',(0.,1.,0.));
#968=DIRECTION('center_axis',(0.,1.,0.));
#969=DIRECTION('ref_axis',(-0.707106781186547,0.,-0.707106781186547));
#970=DIRECTION('',(0.,-1.,0.));
#971=DIRECTION('center_axis',(0.,0.,1.));
#972=DIRECTION('ref_axis',(1.,0.,0.));
#973=DIRECTION('',(0.,1.,0.));
#974=DIRECTION('',(-1.,0.,0.));
#975=DIRECTION('',(0.,-1.,0.));
#976=DIRECTION('center_axis',(0.,-1.,0.));
#977=DIRECTION('ref_axis',(0.707106781186547,0.,-0.707106781186548));
#978=DIRECTION('',(0.,-1.,0.));
#979=DIRECTION('center_axis',(0.,1.,0.));
#980=DIRECTION('ref_axis',(-1.,0.,0.));
#981=DIRECTION('',(0.,-1.,0.));
#982=DIRECTION('',(0.,1.,0.));
#983=DIRECTION('center_axis',(0.,1.,0.));
#984=DIRECTION('ref_axis',(-1.,0.,0.));
#985=DIRECTION('',(0.,1.,0.));
#986=DIRECTION('center_axis',(1.,0.,-8.3790416952842E-17));
#987=DIRECTION('ref_axis',(-8.3790416952842E-17,0.,-1.));
#988=DIRECTION('',(0.,1.,0.));
#989=DIRECTION('',(8.3790416952842E-17,0.,1.));
#990=DIRECTION('center_axis',(0.,-1.,0.));
#991=DIRECTION('ref_axis',(-1.,0.,0.));
#992=DIRECTION('',(0.,-1.,0.));
#993=DIRECTION('center_axis',(0.,1.,0.));
#994=DIRECTION('ref_axis',(-1.,0.,0.));
#995=DIRECTION('',(0.,-1.,0.));
#996=DIRECTION('',(0.,1.,0.));
#997=DIRECTION('center_axis',(0.,1.,0.));
#998=DIRECTION('ref_axis',(-1.,0.,0.));
#999=DIRECTION('center_axis',(0.,-1.,0.));
#1000=DIRECTION('ref_axis',(0.707106781186547,0.,0.707106781186548));
#1001=DIRECTION('center_axis',(0.,1.,0.));
#1002=DIRECTION('ref_axis',(-1.,0.,0.));
#1003=DIRECTION('',(0.,-1.,0.));
#1004=DIRECTION('',(0.,1.,0.));
#1005=DIRECTION('center_axis',(0.,1.,0.));
#1006=DIRECTION('ref_axis',(-1.,0.,0.));
#1007=DIRECTION('center_axis',(0.,0.,-1.));
#1008=DIRECTION('ref_axis',(-1.,0.,0.));
#1009=DIRECTION('center_axis',(0.,-1.,0.));
#1010=DIRECTION('ref_axis',(0.,0.,-1.));
#1011=DIRECTION('',(0.,0.,1.));
#1012=DIRECTION('center_axis',(0.,-1.,0.));
#1013=DIRECTION('ref_axis',(-1.,0.,0.));
#1014=DIRECTION('',(0.,-1.,0.));
#1015=DIRECTION('center_axis',(0.,1.,0.));
#1016=DIRECTION('ref_axis',(-1.,0.,0.));
#1017=DIRECTION('',(0.,-1.,0.));
#1018=DIRECTION('',(0.,1.,0.));
#1019=DIRECTION('center_axis',(0.,1.,0.));
#1020=DIRECTION('ref_axis',(-1.,0.,0.));
#1021=DIRECTION('',(0.,1.,0.));
#1022=DIRECTION('center_axis',(-1.,0.,8.3790416952842E-17));
#1023=DIRECTION('ref_axis',(8.3790416952842E-17,0.,1.));
#1024=DIRECTION('',(-8.3790416952842E-17,0.,-1.));
#1025=DIRECTION('center_axis',(0.,-1.,0.));
#1026=DIRECTION('ref_axis',(0.,0.,-1.));
#1027=DIRECTION('',(1.,0.,1.67580833905684E-16));
#1028=DIRECTION('',(1.,0.,1.85037170770859E-16));
#1029=DIRECTION('center_axis',(0.,-1.,0.));
#1030=DIRECTION('ref_axis',(0.,0.,-1.));
#1031=DIRECTION('',(0.,0.,-1.));
#1032=DIRECTION('center_axis',(-1.,0.,0.));
#1033=DIRECTION('ref_axis',(0.,0.,-1.));
#1034=DIRECTION('center_axis',(1.67580833905684E-16,0.,-1.));
#1035=DIRECTION('ref_axis',(-1.,0.,-1.67580833905684E-16));
#1036=DIRECTION('center_axis',(0.,-1.,0.));
#1037=DIRECTION('ref_axis',(0.,0.,-1.));
#1038=DIRECTION('',(-1.,0.,0.));
#1039=DIRECTION('center_axis',(0.,0.,1.));
#1040=DIRECTION('ref_axis',(-1.,0.,0.));
#1041=DIRECTION('center_axis',(1.85037170770859E-16,0.,-1.));
#1042=DIRECTION('ref_axis',(1.,0.,1.85037170770859E-16));
#1043=DIRECTION('center_axis',(1.,0.,0.));
#1044=DIRECTION('ref_axis',(0.,0.,1.));
#1045=CARTESIAN_POINT('',(0.,0.,0.));
#1046=CARTESIAN_POINT('Origin',(45.0000000000054,22.,45.000000000003));
#1047=CARTESIAN_POINT('',(40.0000000000054,22.,45.000000000003));
#1048=CARTESIAN_POINT('Origin',(45.0000000000054,22.,45.000000000003));
#1049=CARTESIAN_POINT('',(40.0000000000054,24.,45.000000000003));
#1050=CARTESIAN_POINT('',(40.0000000000054,22.,45.000000000003));
#1051=CARTESIAN_POINT('Origin',(45.0000000000054,24.,45.000000000003));
#1052=CARTESIAN_POINT('Origin',(45.0000000000054,24.,45.000000000003));
#1053=CARTESIAN_POINT('Origin',(-44.9999999999945,22.,45.000000000003));
#1054=CARTESIAN_POINT('',(-49.9999999999945,22.,45.000000000003));
#1055=CARTESIAN_POINT('Origin',(-44.9999999999945,22.,45.000000000003));
#1056=CARTESIAN_POINT('',(-49.9999999999945,24.,45.000000000003));
#1057=CARTESIAN_POINT('',(-49.9999999999945,22.,45.000000000003));
#1058=CARTESIAN_POINT('Origin',(-44.9999999999945,24.,45.000000000003));
#1059=CARTESIAN_POINT('Origin',(-44.9999999999945,24.,45.000000000003));
#1060=CARTESIAN_POINT('Origin',(45.0000000000054,22.,-44.999999999997));
#1061=CARTESIAN_POINT('',(40.0000000000054,22.,-44.999999999997));
#1062=CARTESIAN_POINT('Origin',(45.0000000000054,22.,-44.999999999997));
#1063=CARTESIAN_POINT('',(40.0000000000054,24.,-44.999999999997));
#1064=CARTESIAN_POINT('',(40.0000000000054,22.,-44.999999999997));
#1065=CARTESIAN_POINT('Origin',(45.0000000000054,24.,-44.999999999997));
#1066=CARTESIAN_POINT('Origin',(45.0000000000054,24.,-44.999999999997));
#1067=CARTESIAN_POINT('Origin',(-44.9999999999945,22.,-44.999999999997));
#1068=CARTESIAN_POINT('',(-49.9999999999945,22.,-44.999999999997));
#1069=CARTESIAN_POINT('Origin',(-44.9999999999945,22.,-44.999999999997));
#1070=CARTESIAN_POINT('',(-49.9999999999945,24.,-44.999999999997));
#1071=CARTESIAN_POINT('',(-49.9999999999945,22.,-44.999999999997));
#1072=CARTESIAN_POINT('Origin',(-44.9999999999945,24.,-44.999999999997));
#1073=CARTESIAN_POINT('Origin',(-44.9999999999945,24.,-44.999999999997));
#1074=CARTESIAN_POINT('Origin',(-44.9999999999946,22.2,45.000000000003));
#1075=CARTESIAN_POINT('',(-44.9999999999946,22.2,55.000000000003));
#1076=CARTESIAN_POINT('',(-44.9999999999946,25.2,52.000000000003));
#1077=CARTESIAN_POINT('Origin',(-44.9999999999946,22.2,52.000000000003));
#1078=CARTESIAN_POINT('',(-51.9999999999946,25.2,45.000000000003));
#1079=CARTESIAN_POINT('Origin',(-44.9999999999946,25.2,45.000000000003));
#1080=CARTESIAN_POINT('',(-54.9999999999946,22.2,45.000000000003));
#1081=CARTESIAN_POINT('Origin',(-51.9999999999946,22.2,45.000000000003));
#1082=CARTESIAN_POINT('Origin',(-44.9999999999946,22.2,45.000000000003));
#1083=CARTESIAN_POINT('Origin',(-51.9999999999946,22.2,-27.499999999997));
#1084=CARTESIAN_POINT('',(-51.9999999999946,25.2,-44.999999999997));
#1085=CARTESIAN_POINT('',(-54.9999999999946,22.2,-44.999999999997));
#1086=CARTESIAN_POINT('Origin',(-51.9999999999946,22.2,-44.999999999997));
#1087=CARTESIAN_POINT('',(-54.9999999999946,22.2,-27.499999999997));
#1088=CARTESIAN_POINT('',(-51.9999999999946,25.2,-27.499999999997));
#1089=CARTESIAN_POINT('Origin',(-44.9999999999946,22.2,-44.999999999997));
#1090=CARTESIAN_POINT('',(-44.9999999999946,25.2,-51.999999999997));
#1091=CARTESIAN_POINT('',(-44.9999999999946,22.2,-54.999999999997));
#1092=CARTESIAN_POINT('Origin',(-44.9999999999946,22.2,-51.999999999997));
#1093=CARTESIAN_POINT('Origin',(-44.9999999999946,22.2,-44.999999999997));
#1094=CARTESIAN_POINT('Origin',(-44.9999999999946,25.2,-44.999999999997));
#1095=CARTESIAN_POINT('Origin',(27.5000000000054,22.2,-51.999999999997));
#1096=CARTESIAN_POINT('',(45.0000000000054,25.2,-51.999999999997));
#1097=CARTESIAN_POINT('',(45.0000000000054,22.2,-54.999999999997));
#1098=CARTESIAN_POINT('Origin',(45.0000000000054,22.2,-51.999999999997));
#1099=CARTESIAN_POINT('',(27.5000000000054,22.2,-54.999999999997));
#1100=CARTESIAN_POINT('',(27.5000000000054,25.2,-51.999999999997));
#1101=CARTESIAN_POINT('Origin',(45.0000000000054,22.2,-44.999999999997));
#1102=CARTESIAN_POINT('',(52.0000000000054,25.2,-44.999999999997));
#1103=CARTESIAN_POINT('',(55.0000000000054,22.2,-44.999999999997));
#1104=CARTESIAN_POINT('Origin',(52.0000000000054,22.2,-44.999999999997));
#1105=CARTESIAN_POINT('Origin',(45.0000000000054,22.2,-44.999999999997));
#1106=CARTESIAN_POINT('Origin',(45.0000000000054,25.2,-44.999999999997));
#1107=CARTESIAN_POINT('Origin',(52.0000000000054,22.2,27.500000000003));
#1108=CARTESIAN_POINT('',(52.0000000000054,25.2,45.000000000003));
#1109=CARTESIAN_POINT('',(55.0000000000054,22.2,45.000000000003));
#1110=CARTESIAN_POINT('Origin',(52.0000000000054,22.2,45.000000000003));
#1111=CARTESIAN_POINT('',(55.0000000000054,22.2,27.500000000003));
#1112=CARTESIAN_POINT('',(52.0000000000054,25.2,27.500000000003));
#1113=CARTESIAN_POINT('Origin',(45.0000000000054,22.2,45.000000000003));
#1114=CARTESIAN_POINT('',(45.0000000000054,25.2,52.000000000003));
#1115=CARTESIAN_POINT('',(45.0000000000054,22.2,55.000000000003));
#1116=CARTESIAN_POINT('Origin',(45.0000000000054,22.2,52.000000000003));
#1117=CARTESIAN_POINT('Origin',(45.0000000000054,22.2,45.000000000003));
#1118=CARTESIAN_POINT('Origin',(45.0000000000054,25.2,45.000000000003));
#1119=CARTESIAN_POINT('Origin',(-27.4999999999946,22.2,52.000000000003));
#1120=CARTESIAN_POINT('',(-27.4999999999946,25.2,52.000000000003));
#1121=CARTESIAN_POINT('',(-27.4999999999946,22.2,55.000000000003));
#1122=CARTESIAN_POINT('Origin',(55.0000000000054,0.,55.000000000003));
#1123=CARTESIAN_POINT('',(55.0000000000054,22.,45.000000000003));
#1124=CARTESIAN_POINT('',(55.0000000000054,0.,45.000000000003));
#1125=CARTESIAN_POINT('',(55.0000000000054,22.,-44.999999999997));
#1126=CARTESIAN_POINT('',(55.0000000000054,22.,27.500000000003));
#1127=CARTESIAN_POINT('',(55.0000000000054,0.,-44.999999999997));
#1128=CARTESIAN_POINT('Origin',(45.0000000000054,0.,45.000000000003));
#1129=CARTESIAN_POINT('',(45.0000000000054,22.,55.000000000003));
#1130=CARTESIAN_POINT('',(45.0000000000054,0.,55.000000000003));
#1131=CARTESIAN_POINT('Origin',(45.0000000000054,22.,45.000000000003));
#1132=CARTESIAN_POINT('Origin',(-54.9999999999946,0.,55.000000000003));
#1133=CARTESIAN_POINT('',(-44.9999999999946,22.,55.000000000003));
#1134=CARTESIAN_POINT('',(-44.9999999999946,0.,55.000000000003));
#1135=CARTESIAN_POINT('',(-27.4999999999946,22.,55.000000000003));
#1136=CARTESIAN_POINT('Origin',(-44.9999999999946,0.,45.000000000003));
#1137=CARTESIAN_POINT('',(-54.9999999999946,22.,45.000000000003));
#1138=CARTESIAN_POINT('',(-54.9999999999946,0.,45.000000000003));
#1139=CARTESIAN_POINT('Origin',(-44.9999999999946,22.,45.000000000003));
#1140=CARTESIAN_POINT('Origin',(5.43565192856477E-12,25.2,3.01092484278342E-12));
#1141=CARTESIAN_POINT('',(-35.4999999999945,25.2,-47.999999999997));
#1142=CARTESIAN_POINT('',(35.5000000000054,25.2,-47.999999999997));
#1143=CARTESIAN_POINT('',(-47.9999999999945,25.2,-47.999999999997));
#1144=CARTESIAN_POINT('',(48.0000000000054,25.2,-35.499999999997));
#1145=CARTESIAN_POINT('Origin',(48.0000000000054,25.2,-47.999999999997));
#1146=CARTESIAN_POINT('',(48.0000000000054,25.2,35.500000000003));
#1147=CARTESIAN_POINT('',(48.0000000000054,25.2,-47.999999999997));
#1148=CARTESIAN_POINT('',(35.5000000000054,25.2,48.000000000003));
#1149=CARTESIAN_POINT('Origin',(48.0000000000054,25.2,48.000000000003));
#1150=CARTESIAN_POINT('',(-35.4999999999945,25.2,48.000000000003));
#1151=CARTESIAN_POINT('',(48.0000000000054,25.2,48.000000000003));
#1152=CARTESIAN_POINT('',(-47.9999999999945,25.2,35.500000000003));
#1153=CARTESIAN_POINT('Origin',(-47.9999999999945,25.2,48.000000000003));
#1154=CARTESIAN_POINT('',(-47.9999999999945,25.2,-35.499999999997));
#1155=CARTESIAN_POINT('',(-47.9999999999945,25.2,48.000000000003));
#1156=CARTESIAN_POINT('Origin',(-47.9999999999945,25.2,-47.999999999997));
#1157=CARTESIAN_POINT('Origin',(45.0000000000054,0.,-44.999999999997));
#1158=CARTESIAN_POINT('',(45.0000000000054,22.,-54.999999999997));
#1159=CARTESIAN_POINT('Origin',(45.0000000000054,22.,-44.999999999997));
#1160=CARTESIAN_POINT('',(45.0000000000054,0.,-54.999999999997));
#1161=CARTESIAN_POINT('Origin',(5.44009282066327E-12,22.,3.01092484278342E-12));
#1162=CARTESIAN_POINT('',(-54.9999999999946,22.,-44.999999999997));
#1163=CARTESIAN_POINT('',(-54.9999999999946,22.,-27.499999999997));
#1164=CARTESIAN_POINT('',(-44.9999999999946,22.,-54.999999999997));
#1165=CARTESIAN_POINT('Origin',(-44.9999999999946,22.,-44.999999999997));
#1166=CARTESIAN_POINT('',(27.5000000000054,22.,-54.999999999997));
#1167=CARTESIAN_POINT('',(53.0000000000054,22.,-36.5435607626074));
#1168=CARTESIAN_POINT('',(53.0000000000054,22.,36.5435607626134));
#1169=CARTESIAN_POINT('',(53.0000000000054,22.,-26.499999999997));
#1170=CARTESIAN_POINT('',(36.5435607626158,22.,-52.999999999997));
#1171=CARTESIAN_POINT('Origin',(48.0000000000054,22.,-47.999999999997));
#1172=CARTESIAN_POINT('',(-36.5435607626049,22.,-52.999999999997));
#1173=CARTESIAN_POINT('',(-26.4999999999946,22.,-52.999999999997));
#1174=CARTESIAN_POINT('',(-52.9999999999946,22.,-36.5435607626074));
#1175=CARTESIAN_POINT('Origin',(-47.9999999999945,22.,-47.999999999997));
#1176=CARTESIAN_POINT('',(-52.9999999999945,22.,36.5435607626134));
#1177=CARTESIAN_POINT('',(-52.9999999999945,22.,26.500000000003));
#1178=CARTESIAN_POINT('',(-36.5435607626049,22.,53.000000000003));
#1179=CARTESIAN_POINT('Origin',(-47.9999999999945,22.,48.000000000003));
#1180=CARTESIAN_POINT('',(36.5435607626158,22.,53.000000000003));
#1181=CARTESIAN_POINT('',(26.5000000000054,22.,53.000000000003));
#1182=CARTESIAN_POINT('Origin',(48.0000000000054,22.,48.000000000003));
#1183=CARTESIAN_POINT('Origin',(-54.9999999999946,0.,-54.999999999997));
#1184=CARTESIAN_POINT('',(-54.9999999999946,0.,-44.999999999997));
#1185=CARTESIAN_POINT('Origin',(-44.9999999999946,0.,-44.999999999997));
#1186=CARTESIAN_POINT('',(-44.9999999999946,0.,-54.999999999997));
#1187=CARTESIAN_POINT('Origin',(-52.9999999999946,0.,-52.999999999997));
#1188=CARTESIAN_POINT('',(36.5435607626158,23.2,-52.999999999997));
#1189=CARTESIAN_POINT('',(36.5435607626158,25.2,-52.999999999997));
#1190=CARTESIAN_POINT('',(-36.5435607626049,23.2,-52.999999999997));
#1191=CARTESIAN_POINT('',(-26.4999999999946,23.2,-52.999999999997));
#1192=CARTESIAN_POINT('',(-36.5435607626049,25.2,-52.999999999997));
#1193=CARTESIAN_POINT('Origin',(-47.9999999999945,25.2,48.000000000003));
#1194=CARTESIAN_POINT('',(-52.9999999999945,23.2,36.5435607626134));
#1195=CARTESIAN_POINT('',(-52.9999999999945,25.2,36.5435607626134));
#1196=CARTESIAN_POINT('',(-47.9999999999945,23.2,35.500000000003));
#1197=CARTESIAN_POINT('Origin',(-47.9999999999945,23.2,48.000000000003));
#1198=CARTESIAN_POINT('',(-47.9999999999945,25.2,35.500000000003));
#1199=CARTESIAN_POINT('',(-35.4999999999945,23.2,48.000000000003));
#1200=CARTESIAN_POINT('',(-35.4999999999945,25.2,48.000000000003));
#1201=CARTESIAN_POINT('',(-36.5435607626049,23.2,53.000000000003));
#1202=CARTESIAN_POINT('Origin',(-47.9999999999945,23.2,48.000000000003));
#1203=CARTESIAN_POINT('',(-36.5435607626049,25.2,53.000000000003));
#1204=CARTESIAN_POINT('Origin',(-52.9999999999945,0.,53.000000000003));
#1205=CARTESIAN_POINT('',(-52.9999999999945,23.2,-36.5435607626074));
#1206=CARTESIAN_POINT('',(-52.9999999999946,25.2,-36.5435607626074));
#1207=CARTESIAN_POINT('',(-52.9999999999945,23.2,26.500000000003));
#1208=CARTESIAN_POINT('Origin',(48.0000000000054,25.2,-47.999999999997));
#1209=CARTESIAN_POINT('',(53.0000000000054,23.2,-36.5435607626074));
#1210=CARTESIAN_POINT('',(53.0000000000054,25.2,-36.5435607626074));
#1211=CARTESIAN_POINT('',(48.0000000000054,23.2,-35.499999999997));
#1212=CARTESIAN_POINT('Origin',(48.0000000000054,23.2,-47.999999999997));
#1213=CARTESIAN_POINT('',(48.0000000000054,25.2,-35.499999999997));
#1214=CARTESIAN_POINT('',(35.5000000000054,23.2,-47.999999999997));
#1215=CARTESIAN_POINT('',(35.5000000000054,25.2,-47.999999999997));
#1216=CARTESIAN_POINT('Origin',(48.0000000000054,23.2,-47.999999999997));
#1217=CARTESIAN_POINT('Origin',(-47.9999999999945,25.2,-47.999999999997));
#1218=CARTESIAN_POINT('',(-35.4999999999945,23.2,-47.999999999997));
#1219=CARTESIAN_POINT('Origin',(-47.9999999999945,23.2,-47.999999999997));
#1220=CARTESIAN_POINT('',(-35.4999999999945,25.2,-47.999999999997));
#1221=CARTESIAN_POINT('',(-47.9999999999945,23.2,-35.499999999997));
#1222=CARTESIAN_POINT('',(-47.9999999999945,25.2,-35.499999999997));
#1223=CARTESIAN_POINT('Origin',(-47.9999999999945,23.2,-47.999999999997));
#1224=CARTESIAN_POINT('Origin',(55.0000000000054,0.,-54.999999999997));
#1225=CARTESIAN_POINT('Origin',(5.44453371276177E-12,23.2,3.01980662698043E-12));
#1226=CARTESIAN_POINT('',(-47.9999999999945,23.2,48.000000000003));
#1227=CARTESIAN_POINT('Origin',(48.0000000000054,25.2,48.000000000003));
#1228=CARTESIAN_POINT('',(36.5435607626158,23.2,53.000000000003));
#1229=CARTESIAN_POINT('',(36.5435607626158,25.2,53.000000000003));
#1230=CARTESIAN_POINT('',(35.5000000000054,23.2,48.000000000003));
#1231=CARTESIAN_POINT('Origin',(48.0000000000054,23.2,48.000000000003));
#1232=CARTESIAN_POINT('',(35.5000000000054,25.2,48.000000000003));
#1233=CARTESIAN_POINT('',(48.0000000000054,23.2,35.500000000003));
#1234=CARTESIAN_POINT('',(48.0000000000054,25.2,35.500000000003));
#1235=CARTESIAN_POINT('',(53.0000000000054,23.2,36.5435607626134));
#1236=CARTESIAN_POINT('Origin',(48.0000000000054,23.2,48.000000000003));
#1237=CARTESIAN_POINT('',(53.0000000000054,25.2,36.5435607626134));
#1238=CARTESIAN_POINT('Origin',(53.0000000000054,0.,-52.999999999997));
#1239=CARTESIAN_POINT('',(53.0000000000054,23.2,-26.499999999997));
#1240=CARTESIAN_POINT('Origin',(5.44453371276177E-12,23.2,3.01980662698043E-12));
#1241=CARTESIAN_POINT('',(26.5000000000054,23.2,53.000000000003));
#1242=CARTESIAN_POINT('',(48.0000000000054,23.2,48.000000000003));
#1243=CARTESIAN_POINT('Origin',(5.44453371276177E-12,23.2,3.01980662698043E-12));
#1244=CARTESIAN_POINT('',(48.0000000000054,23.2,-47.999999999997));
#1245=CARTESIAN_POINT('Origin',(48.0000000000054,25.2,48.000000000003));
#1246=CARTESIAN_POINT('Origin',(53.0000000000054,0.,53.000000000003));
#1247=CARTESIAN_POINT('Origin',(5.44453371276177E-12,23.2,3.01980662698043E-12));
#1248=CARTESIAN_POINT('',(-47.9999999999945,23.2,-47.999999999997));
#1249=CARTESIAN_POINT('Origin',(48.0000000000054,25.2,-47.999999999997));
#1250=CARTESIAN_POINT('Origin',(-47.9999999999945,25.2,48.000000000003));
#1251=CARTESIAN_POINT('Origin',(-47.9999999999945,25.2,-47.999999999997));
#1252=UNCERTAINTY_MEASURE_WITH_UNIT(LENGTH_MEASURE(0.01),#1256,
'DISTANCE_ACCURACY_VALUE',
'Maximum model space distance between geometric entities at asserted c
onnectivities');
#1253=UNCERTAINTY_MEASURE_WITH_UNIT(LENGTH_MEASURE(0.01),#1256,
'DISTANCE_ACCURACY_VALUE',
'Maximum model space distance between geometric entities at asserted c
onnectivities');
#1254=(
GEOMETRIC_REPRESENTATION_CONTEXT(3)
GLOBAL_UNCERTAINTY_ASSIGNED_CONTEXT((#1252))
GLOBAL_UNIT_ASSIGNED_CONTEXT((#1256,#1258,#1259))
REPRESENTATION_CONTEXT('','3D')
);
#1255=(
GEOMETRIC_REPRESENTATION_CONTEXT(3)
GLOBAL_UNCERTAINTY_ASSIGNED_CONTEXT((#1253))
GLOBAL_UNIT_ASSIGNED_CONTEXT((#1256,#1258,#1259))
REPRESENTATION_CONTEXT('','3D')
);
#1256=(
LENGTH_UNIT()
NAMED_UNIT(*)
SI_UNIT(.MILLI.,.METRE.)
);
#1257=(
LENGTH_UNIT()
NAMED_UNIT(*)
SI_UNIT($,.METRE.)
);
#1258=(
NAMED_UNIT(*)
PLANE_ANGLE_UNIT()
SI_UNIT($,.RADIAN.)
);
#1259=(
NAMED_UNIT(*)
SI_UNIT($,.STERADIAN.)
SOLID_ANGLE_UNIT()
);
#1260=SHAPE_DEFINITION_REPRESENTATION(#1261,#1262);
#1261=PRODUCT_DEFINITION_SHAPE('',$,#1264);
#1262=SHAPE_REPRESENTATION('',(#728),#1254);
#1263=PRODUCT_DEFINITION_CONTEXT('part definition',#1268,'design');
#1264=PRODUCT_DEFINITION('2026-04-22-11-22-34-728',
'Fume Extractor_Case1',#1265,#1263);
#1265=PRODUCT_DEFINITION_FORMATION('',$,#1270);
#1266=PRODUCT_RELATED_PRODUCT_CATEGORY('Fume Extractor_Case1',
'Fume Extractor_Case1',(#1270));
#1267=APPLICATION_PROTOCOL_DEFINITION('international standard',
'automotive_design',2009,#1268);
#1268=APPLICATION_CONTEXT(
'Core Data for Automotive Mechanical Design Process');
#1269=PRODUCT_CONTEXT('part definition',#1268,'mechanical');
#1270=PRODUCT('2026-04-22-11-22-34-728','Fume Extractor_Case1',$,(#1269));
#1271=PRESENTATION_STYLE_ASSIGNMENT((#1272));
#1272=SURFACE_STYLE_USAGE(.BOTH.,#1273);
#1273=SURFACE_SIDE_STYLE('',(#1274));
#1274=SURFACE_STYLE_FILL_AREA(#1275);
#1275=FILL_AREA_STYLE('Steel - Satin',(#1276));
#1276=FILL_AREA_STYLE_COLOUR('Steel - Satin',#1277);
#1277=COLOUR_RGB('Steel - Satin',0.627450980392157,0.627450980392157,0.627450980392157);
ENDSEC;
END-ISO-10303-21;
